<?xml version="1.0" encoding="UTF-8" standalone="no"?>
<!DOCTYPE svg PUBLIC "-//W3C//DTD SVG 1.1//EN"
 "http://www.w3.org/Graphics/SVG/1.1/DTD/svg11.dtd">
<!-- Generated by graphviz version 4.0.0 (20220529.0937)
 -->
<!-- Pages: 1 -->
<svg width="15000pt" height="14779pt"
 viewBox="0.00 0.00 1080.00 1064.09" xmlns="http://www.w3.org/2000/svg" xmlns:xlink="http://www.w3.org/1999/xlink">
<g id="graph0" class="graph" transform="scale(7.75394 7.75394) rotate(0) translate(4 1902)">
<polygon fill="white" stroke="transparent" points="-4,4 -4,-1902 1930.5,-1902 1930.5,4 -4,4"/>
<!-- Ø20&#45;604&#45;0 -->
<g id="node1" class="node">
<title>Ø20&#45;604&#45;0</title>
<polygon fill="#3b3838" stroke="#2f528f" stroke-width="5" points="1226,-1560 362,-1560 362,-1416 1226,-1416 1226,-1560"/>
<text text-anchor="middle" x="794" y="-1473" font-family="Times New Roman,serif" font-size="60.00" fill="white">BuildingSpace</text>
</g>
<!-- C_T_Ø20&#45;604&#45;0 -->
<g id="node2" class="node">
<title>C_T_Ø20&#45;604&#45;0</title>
<polygon fill="#c55a11" stroke="black" stroke-width="5" points="719.5,-1182 298.5,-1182 298.5,-1104 719.5,-1104 719.5,-1182"/>
<text text-anchor="middle" x="509" y="-1130.85" font-family="Times New Roman,serif" font-size="47.69" fill="white">Controller</text>
</g>
<!-- Ø20&#45;604&#45;0&#45;&gt;C_T_Ø20&#45;604&#45;0 -->
<g id="edge1" class="edge">
<title>Ø20&#45;604&#45;0&#45;&gt;C_T_Ø20&#45;604&#45;0</title>
<path fill="none" stroke="#999999" stroke-width="7" d="M712.7,-1416C677.21,-1382.91 636.4,-1341.88 604,-1301 576.6,-1266.42 551.05,-1223.31 533.36,-1191.02"/>
<polygon fill="#999999" stroke="#999999" stroke-width="7" points="538.73,-1188.08 528.58,-1182.21 527.96,-1193.93 538.73,-1188.08"/>
<text text-anchor="middle" x="669" y="-1285" font-family="Helvetica,sans-Serif" font-size="20.00">actualValue &#160;&#160;&#160;</text>
</g>
<!-- C_C_Ø20&#45;604&#45;0 -->
<g id="node3" class="node">
<title>C_C_Ø20&#45;604&#45;0</title>
<polygon fill="#c55a11" stroke="black" stroke-width="5" points="1511,-1188.5 1001,-1188.5 1001,-1097.5 1511,-1097.5 1511,-1188.5"/>
<text text-anchor="middle" x="1256" y="-1130.38" font-family="Times New Roman,serif" font-size="50.15" fill="white">Controller</text>
</g>
<!-- Ø20&#45;604&#45;0&#45;&gt;C_C_Ø20&#45;604&#45;0 -->
<g id="edge2" class="edge">
<title>Ø20&#45;604&#45;0&#45;&gt;C_C_Ø20&#45;604&#45;0</title>
<path fill="none" stroke="#999999" stroke-width="7" d="M1158.1,-1415.86C1214.33,-1388.95 1265.44,-1351.93 1301,-1301 1322.37,-1270.4 1309.87,-1229.76 1292.68,-1197.5"/>
<polygon fill="#999999" stroke="#999999" stroke-width="7" points="1297.95,-1194.38 1287.73,-1188.64 1287.25,-1200.35 1297.95,-1194.38"/>
<text text-anchor="middle" x="1375" y="-1285" font-family="Helvetica,sans-Serif" font-size="20.00">actualValue &#160;&#160;&#160;</text>
</g>
<!-- N_S_Ventilation1 -->
<g id="node5" class="node">
<title>N_S_Ventilation1</title>
<polygon fill="#d9d9d9" stroke="black" stroke-width="5" points="1753.5,-644 1288.5,-644 1288.5,-560 1753.5,-560 1753.5,-644"/>
<text text-anchor="middle" x="1521" y="-589.86" font-family="Times New Roman,serif" font-size="48.92" fill="white">Node</text>
</g>
<!-- Ø20&#45;604&#45;0&#45;&gt;N_S_Ventilation1 -->
<g id="edge3" class="edge">
<title>Ø20&#45;604&#45;0&#45;&gt;N_S_Ventilation1</title>
<path fill="none" stroke="#999999" stroke-width="7" d="M1205.86,-1415.99C1289.73,-1389.07 1373.7,-1352.01 1444,-1301 1492.84,-1265.56 1502.34,-1246.2 1520,-1188.5 1531.84,-1149.83 1520.22,-1137.94 1520,-1097.5 1519.78,-1057.28 1519.22,-1047.22 1519,-1007 1518.3,-880.23 1519.59,-731.07 1520.4,-654.34"/>
<polygon fill="#999999" stroke="#999999" stroke-width="7" points="1526.53,-654.07 1520.51,-644 1514.28,-653.94 1526.53,-654.07"/>
<text text-anchor="middle" x="1615.5" y="-991" font-family="Helvetica,sans-Serif" font-size="20.00">flowTemperatureIn &#160;&#160;&#160;</text>
</g>
<!-- N_E_Ventilation1 -->
<g id="node7" class="node">
<title>N_E_Ventilation1</title>
<polygon fill="#d9d9d9" stroke="black" stroke-width="5" points="989.5,-644 524.5,-644 524.5,-560 989.5,-560 989.5,-644"/>
<text text-anchor="middle" x="757" y="-589.86" font-family="Times New Roman,serif" font-size="48.92" fill="white">Node</text>
</g>
<!-- Ø20&#45;604&#45;0&#45;&gt;N_E_Ventilation1 -->
<g id="edge4" class="edge">
<title>Ø20&#45;604&#45;0&#45;&gt;N_E_Ventilation1</title>
<path fill="none" stroke="#999999" stroke-width="7" d="M779.8,-1415.73C773.42,-1381.21 766.36,-1339.09 762,-1301 745.99,-1161.27 742.79,-1125.63 745,-985 746.86,-866.75 751.94,-727.99 754.86,-654.6"/>
<polygon fill="#999999" stroke="#999999" stroke-width="7" points="761,-654.49 755.28,-644.26 748.76,-654 761,-654.49"/>
<text text-anchor="middle" x="841.5" y="-991" font-family="Helvetica,sans-Serif" font-size="20.00">flowTemperatureIn &#160;&#160;&#160;</text>
</g>
<!-- SH_Ø20&#45;604&#45;0 -->
<g id="node10" class="node">
<title>SH_Ø20&#45;604&#45;0</title>
<polygon fill="#873939" stroke="black" stroke-width="5" points="466,-634 134,-634 134,-570 466,-570 466,-634"/>
<text text-anchor="middle" x="300" y="-590.82" font-family="Times New Roman,serif" font-size="45.23" fill="white">SpaceHeater</text>
</g>
<!-- Ø20&#45;604&#45;0&#45;&gt;SH_Ø20&#45;604&#45;0 -->
<g id="edge5" class="edge">
<title>Ø20&#45;604&#45;0&#45;&gt;SH_Ø20&#45;604&#45;0</title>
<path fill="none" stroke="#999999" stroke-width="7" d="M561.07,-1415.99C455.26,-1369.99 342.06,-1297.75 289,-1188.5 198.83,-1002.83 258.6,-743.4 287.2,-643.98"/>
<polygon fill="#999999" stroke="#999999" stroke-width="7" points="293.1,-645.63 290.03,-634.32 281.34,-642.19 293.1,-645.63"/>
<text text-anchor="middle" x="341" y="-991" font-family="Helvetica,sans-Serif" font-size="20.00">indoorTemperature &#160;&#160;&#160;</text>
</g>
<!-- C_T_Ø20&#45;604&#45;0&#45;&gt;Ø20&#45;604&#45;0 -->
<g id="edge6" class="edge">
<title>C_T_Ø20&#45;604&#45;0&#45;&gt;Ø20&#45;604&#45;0</title>
<path fill="none" stroke="#999999" stroke-width="7" d="M473.18,-1182.26C447.08,-1215 419.98,-1262.75 443,-1301 471.37,-1348.14 516.15,-1383.97 564.36,-1410.95"/>
<polygon fill="#999999" stroke="#999999" stroke-width="7" points="561.68,-1416.47 573.39,-1415.89 567.55,-1405.72 561.68,-1416.47"/>
<text text-anchor="middle" x="514.5" y="-1285" font-family="Helvetica,sans-Serif" font-size="20.00">valvePosition &#160;&#160;&#160;</text>
</g>
<!-- V_Ø20&#45;604&#45;0 -->
<g id="node11" class="node">
<title>V_Ø20&#45;604&#45;0</title>
<polygon fill="#873939" stroke="black" stroke-width="5" points="643,-901 311,-901 311,-837 643,-837 643,-901"/>
<text text-anchor="middle" x="477" y="-857.82" font-family="Times New Roman,serif" font-size="45.23" fill="white">Valve</text>
</g>
<!-- C_T_Ø20&#45;604&#45;0&#45;&gt;V_Ø20&#45;604&#45;0 -->
<g id="edge7" class="edge">
<title>C_T_Ø20&#45;604&#45;0&#45;&gt;V_Ø20&#45;604&#45;0</title>
<path fill="none" stroke="#999999" stroke-width="7" d="M504.52,-1103.89C498.53,-1053.04 487.98,-963.34 481.83,-911.04"/>
<polygon fill="#999999" stroke="#999999" stroke-width="7" points="487.91,-910.32 480.66,-901.1 475.74,-911.75 487.91,-910.32"/>
<text text-anchor="middle" x="564.5" y="-991" font-family="Helvetica,sans-Serif" font-size="20.00">valvePosition &#160;&#160;&#160;</text>
</g>
<!-- C_C_Ø20&#45;604&#45;0&#45;&gt;Ø20&#45;604&#45;0 -->
<g id="edge8" class="edge">
<title>C_C_Ø20&#45;604&#45;0&#45;&gt;Ø20&#45;604&#45;0</title>
<path fill="none" stroke="#999999" stroke-width="7" d="M1045.25,-1188.57C952.76,-1212.38 858.31,-1243.99 828,-1279 798.29,-1313.32 789.39,-1363.22 788.11,-1405.54"/>
<polygon fill="#999999" stroke="#999999" stroke-width="7" points="781.98,-1405.46 787.94,-1415.56 794.23,-1405.67 781.98,-1405.46"/>
<text text-anchor="middle" x="942" y="-1285" font-family="Helvetica,sans-Serif" font-size="20.00">supplyDamperPosition &#160;&#160;&#160;</text>
</g>
<!-- C_C_Ø20&#45;604&#45;0&#45;&gt;Ø20&#45;604&#45;0 -->
<g id="edge9" class="edge">
<title>C_C_Ø20&#45;604&#45;0&#45;&gt;Ø20&#45;604&#45;0</title>
<path fill="none" stroke="#999999" stroke-width="7" d="M1189.21,-1188.55C1153.81,-1213.43 1110.44,-1246.01 1075,-1279 1065.54,-1287.8 1065.56,-1292.31 1056,-1301 1012.77,-1340.3 961.07,-1378.58 915.05,-1410.09"/>
<polygon fill="#999999" stroke="#999999" stroke-width="7" points="911.35,-1405.2 906.53,-1415.89 918.24,-1415.33 911.35,-1405.2"/>
<text text-anchor="middle" x="1186" y="-1285" font-family="Helvetica,sans-Serif" font-size="20.00">returnDamperPosition &#160;&#160;&#160;</text>
</g>
<!-- D_S_Ø20&#45;604&#45;0 -->
<g id="node4" class="node">
<title>D_S_Ø20&#45;604&#45;0</title>
<polygon fill="#44546a" stroke="black" stroke-width="5" points="1926.5,-904.5 1549.5,-904.5 1549.5,-833.5 1926.5,-833.5 1926.5,-904.5"/>
<text text-anchor="middle" x="1738" y="-857.33" font-family="Times New Roman,serif" font-size="46.46" fill="white">Damper</text>
</g>
<!-- C_C_Ø20&#45;604&#45;0&#45;&gt;D_S_Ø20&#45;604&#45;0 -->
<g id="edge10" class="edge">
<title>C_C_Ø20&#45;604&#45;0&#45;&gt;D_S_Ø20&#45;604&#45;0</title>
<path fill="none" stroke="#999999" stroke-width="7" d="M1267.32,-1097.48C1278.56,-1062.09 1299.24,-1013.89 1334,-985 1391.71,-937.03 1468.31,-909.04 1539.28,-892.72"/>
<polygon fill="#999999" stroke="#999999" stroke-width="7" points="1540.83,-898.65 1549.26,-890.5 1538.16,-886.7 1540.83,-898.65"/>
<text text-anchor="middle" x="1416.5" y="-991" font-family="Helvetica,sans-Serif" font-size="20.00">damperPosition &#160;&#160;&#160;</text>
</g>
<!-- D_E_Ø20&#45;604&#45;0 -->
<g id="node6" class="node">
<title>D_E_Ø20&#45;604&#45;0</title>
<polygon fill="#44546a" stroke="black" stroke-width="5" points="1153.5,-904.5 776.5,-904.5 776.5,-833.5 1153.5,-833.5 1153.5,-904.5"/>
<text text-anchor="middle" x="965" y="-857.33" font-family="Times New Roman,serif" font-size="46.46" fill="white">Damper</text>
</g>
<!-- C_C_Ø20&#45;604&#45;0&#45;&gt;D_E_Ø20&#45;604&#45;0 -->
<g id="edge11" class="edge">
<title>C_C_Ø20&#45;604&#45;0&#45;&gt;D_E_Ø20&#45;604&#45;0</title>
<path fill="none" stroke="#999999" stroke-width="7" d="M1205.98,-1097.39C1176.89,-1071.27 1139.64,-1037.52 1107,-1007 1073.23,-975.43 1035.61,-939.08 1007.58,-911.75"/>
<polygon fill="#999999" stroke="#999999" stroke-width="7" points="1011.74,-907.25 1000.3,-904.66 1003.18,-916.02 1011.74,-907.25"/>
<text text-anchor="middle" x="1189.5" y="-991" font-family="Helvetica,sans-Serif" font-size="20.00">damperPosition &#160;&#160;&#160;</text>
</g>
<!-- D_S_Ø20&#45;604&#45;0&#45;&gt;Ø20&#45;604&#45;0 -->
<g id="edge12" class="edge">
<title>D_S_Ø20&#45;604&#45;0&#45;&gt;Ø20&#45;604&#45;0</title>
<path fill="none" stroke="#999999" stroke-width="7" d="M1734.41,-904.54C1723.76,-987.84 1684.38,-1200.35 1553,-1301 1461.7,-1370.95 1347.62,-1414.97 1235.88,-1442.56"/>
<polygon fill="#999999" stroke="#999999" stroke-width="7" points="1234.39,-1436.62 1226.12,-1444.93 1237.28,-1448.52 1234.39,-1436.62"/>
<text text-anchor="middle" x="1784.5" y="-1138" font-family="Helvetica,sans-Serif" font-size="20.00">supplyAirFlowRate &#160;&#160;&#160;</text>
</g>
<!-- D_S_Ø20&#45;604&#45;0&#45;&gt;N_S_Ventilation1 -->
<g id="edge13" class="edge">
<title>D_S_Ø20&#45;604&#45;0&#45;&gt;N_S_Ventilation1</title>
<path fill="none" stroke="#999999" stroke-width="7" d="M1709.63,-833.36C1671.71,-787.05 1604.29,-704.72 1561.17,-652.05"/>
<polygon fill="#999999" stroke="#999999" stroke-width="7" points="1565.8,-648.04 1554.72,-644.18 1556.32,-655.8 1565.8,-648.04"/>
<text text-anchor="middle" x="1693.5" y="-737" font-family="Helvetica,sans-Serif" font-size="20.00">flowRate &#160;&#160;&#160;</text>
</g>
<!-- HR_Ventilation1 -->
<g id="node12" class="node">
<title>HR_Ventilation1</title>
<polygon fill="#44546a" stroke="black" stroke-width="5" points="1264.5,-365 799.5,-365 799.5,-281 1264.5,-281 1264.5,-365"/>
<text text-anchor="middle" x="1032" y="-310.86" font-family="Times New Roman,serif" font-size="48.92" fill="white">AirToAirHeatRecovery</text>
</g>
<!-- N_S_Ventilation1&#45;&gt;HR_Ventilation1 -->
<g id="edge15" class="edge">
<title>N_S_Ventilation1&#45;&gt;HR_Ventilation1</title>
<path fill="none" stroke="#999999" stroke-width="7" d="M1448.58,-559.98C1359.08,-509.28 1207.18,-423.23 1113.63,-370.24"/>
<polygon fill="#999999" stroke="#999999" stroke-width="7" points="1116.48,-364.82 1104.76,-365.22 1110.45,-375.48 1116.48,-364.82"/>
<text text-anchor="middle" x="1393.5" y="-458" font-family="Helvetica,sans-Serif" font-size="20.00">primaryAirFlowRate &#160;&#160;&#160;</text>
</g>
<!-- HC_Ventilation1_Heating1 -->
<g id="node13" class="node">
<title>HC_Ventilation1_Heating1</title>
<polygon fill="#873939" stroke="black" stroke-width="5" points="1519,-95 1187,-95 1187,-31 1519,-31 1519,-95"/>
<text text-anchor="middle" x="1353" y="-51.82" font-family="Times New Roman,serif" font-size="45.23" fill="white">CoilHeating</text>
</g>
<!-- N_S_Ventilation1&#45;&gt;HC_Ventilation1_Heating1 -->
<g id="edge14" class="edge">
<title>N_S_Ventilation1&#45;&gt;HC_Ventilation1_Heating1</title>
<path fill="none" stroke="#999999" stroke-width="7" d="M1577.25,-559.83C1602.9,-537.59 1630.7,-507.77 1645,-474 1678.45,-395 1686.72,-357.55 1648,-281 1604.33,-194.67 1508.35,-134.3 1437.67,-99.53"/>
<polygon fill="#999999" stroke="#999999" stroke-width="7" points="1439.98,-93.84 1428.31,-95 1434.65,-104.87 1439.98,-93.84"/>
<text text-anchor="middle" x="1739.5" y="-318" font-family="Helvetica,sans-Serif" font-size="20.00">airFlowRate &#160;&#160;&#160;</text>
</g>
<!-- F_S_Ventilation1 -->
<g id="node14" class="node">
<title>F_S_Ventilation1</title>
<polygon fill="#44546a" stroke="black" stroke-width="5" points="1639,-352 1351,-352 1351,-294 1639,-294 1639,-352"/>
<text text-anchor="middle" x="1495" y="-311.8" font-family="Times New Roman,serif" font-size="44.00" fill="white">Fan</text>
</g>
<!-- N_S_Ventilation1&#45;&gt;F_S_Ventilation1 -->
<g id="edge16" class="edge">
<title>N_S_Ventilation1&#45;&gt;F_S_Ventilation1</title>
<path fill="none" stroke="#999999" stroke-width="7" d="M1517.14,-559.83C1512.13,-506.53 1503.48,-414.35 1498.61,-362.43"/>
<polygon fill="#999999" stroke="#999999" stroke-width="7" points="1504.69,-361.68 1497.66,-352.3 1492.49,-362.83 1504.69,-361.68"/>
<text text-anchor="middle" x="1574.5" y="-458" font-family="Helvetica,sans-Serif" font-size="20.00">airFlowRate &#160;&#160;&#160;</text>
</g>
<!-- D_E_Ø20&#45;604&#45;0&#45;&gt;Ø20&#45;604&#45;0 -->
<g id="edge17" class="edge">
<title>D_E_Ø20&#45;604&#45;0&#45;&gt;Ø20&#45;604&#45;0</title>
<path fill="none" stroke="#999999" stroke-width="7" d="M966.64,-904.57C966.4,-934.07 962.02,-976.44 942,-1007 901.6,-1068.66 838.88,-1033.11 803,-1097.5 749.85,-1192.89 760.15,-1322.86 775.02,-1405.87"/>
<polygon fill="#999999" stroke="#999999" stroke-width="7" points="769.01,-1407.04 776.85,-1415.76 781.05,-1404.81 769.01,-1407.04"/>
<text text-anchor="middle" x="897.5" y="-1138" font-family="Helvetica,sans-Serif" font-size="20.00">returnAirFlowRate &#160;&#160;&#160;</text>
</g>
<!-- D_E_Ø20&#45;604&#45;0&#45;&gt;N_E_Ventilation1 -->
<g id="edge18" class="edge">
<title>D_E_Ø20&#45;604&#45;0&#45;&gt;N_E_Ventilation1</title>
<path fill="none" stroke="#999999" stroke-width="7" d="M937.81,-833.36C901.46,-787.05 836.84,-704.72 795.5,-652.05"/>
<polygon fill="#999999" stroke="#999999" stroke-width="7" points="800.32,-648.27 789.33,-644.18 790.68,-655.83 800.32,-648.27"/>
<text text-anchor="middle" x="925.5" y="-737" font-family="Helvetica,sans-Serif" font-size="20.00">flowRate &#160;&#160;&#160;</text>
</g>
<!-- N_E_Ventilation1&#45;&gt;HR_Ventilation1 -->
<g id="edge19" class="edge">
<title>N_E_Ventilation1&#45;&gt;HR_Ventilation1</title>
<path fill="none" stroke="#999999" stroke-width="7" d="M746.1,-559.72C740.15,-527.78 737.61,-483.79 758,-452 781.91,-414.71 819.82,-388.1 859.91,-369.17"/>
<polygon fill="#999999" stroke="#999999" stroke-width="7" points="862.48,-374.73 869.04,-365.01 857.4,-363.59 862.48,-374.73"/>
<text text-anchor="middle" x="884" y="-458" font-family="Helvetica,sans-Serif" font-size="20.00">secondaryTemperatureIn &#160;&#160;&#160;</text>
</g>
<!-- N_E_Ventilation1&#45;&gt;HR_Ventilation1 -->
<g id="edge20" class="edge">
<title>N_E_Ventilation1&#45;&gt;HR_Ventilation1</title>
<path fill="none" stroke="#999999" stroke-width="7" d="M895.59,-559.9C938.56,-540.52 981.94,-512.84 1010,-474 1030.42,-445.73 1035.6,-406.53 1035.84,-375.3"/>
<polygon fill="#999999" stroke="#999999" stroke-width="7" points="1041.96,-374.98 1035.75,-365.04 1029.71,-375.09 1041.96,-374.98"/>
<text text-anchor="middle" x="1137" y="-458" font-family="Helvetica,sans-Serif" font-size="20.00">secondaryAirFlowRate &#160;&#160;&#160;</text>
</g>
<!-- F_E_Ventilation1 -->
<g id="node15" class="node">
<title>F_E_Ventilation1</title>
<polygon fill="#44546a" stroke="black" stroke-width="5" points="745,-352 457,-352 457,-294 745,-294 745,-352"/>
<text text-anchor="middle" x="601" y="-311.8" font-family="Times New Roman,serif" font-size="44.00" fill="white">Fan</text>
</g>
<!-- N_E_Ventilation1&#45;&gt;F_E_Ventilation1 -->
<g id="edge21" class="edge">
<title>N_E_Ventilation1&#45;&gt;F_E_Ventilation1</title>
<path fill="none" stroke="#999999" stroke-width="7" d="M682.2,-559.88C651.41,-538.63 619.02,-509.63 602,-474 585.26,-438.95 587.69,-393.83 592.63,-362.27"/>
<polygon fill="#999999" stroke="#999999" stroke-width="7" points="598.72,-363.01 594.38,-352.12 586.64,-360.93 598.72,-363.01"/>
<text text-anchor="middle" x="668.5" y="-458" font-family="Helvetica,sans-Serif" font-size="20.00">airFlowRate &#160;&#160;&#160;</text>
</g>
<!-- weather_station -->
<g id="node8" class="node">
<title>weather_station</title>
<polygon fill="#d9d9d9" stroke="black" stroke-width="5" points="663.5,-1860 242.5,-1860 242.5,-1782 663.5,-1782 663.5,-1860"/>
<text text-anchor="middle" x="453" y="-1808.85" font-family="Times New Roman,serif" font-size="47.69" fill="white">WeatherStation</text>
</g>
<!-- weather_station&#45;&gt;Ø20&#45;604&#45;0 -->
<g id="edge22" class="edge">
<title>weather_station&#45;&gt;Ø20&#45;604&#45;0</title>
<path fill="none" stroke="#999999" stroke-width="7" d="M651.23,-1781.95C697.41,-1763.89 741.83,-1737.26 772,-1698 799.42,-1662.32 805.52,-1612.51 804.49,-1570.47"/>
<polygon fill="#999999" stroke="#999999" stroke-width="7" points="810.6,-1570 804.1,-1560.24 798.36,-1570.47 810.6,-1570"/>
<text text-anchor="middle" x="885.5" y="-1682" font-family="Helvetica,sans-Serif" font-size="20.00">shortwaveRadiation &#160;&#160;&#160;</text>
</g>
<!-- weather_station&#45;&gt;Ø20&#45;604&#45;0 -->
<g id="edge23" class="edge">
<title>weather_station&#45;&gt;Ø20&#45;604&#45;0</title>
<path fill="none" stroke="#999999" stroke-width="7" d="M392.7,-1781.8C355.53,-1753.29 319.29,-1713.03 344,-1676 376.52,-1627.27 424.37,-1591.22 476.88,-1564.56"/>
<polygon fill="#999999" stroke="#999999" stroke-width="7" points="479.79,-1569.95 486.03,-1560.03 474.36,-1558.97 479.79,-1569.95"/>
<text text-anchor="middle" x="442" y="-1682" font-family="Helvetica,sans-Serif" font-size="20.00">longwaveRadiation &#160;&#160;&#160;</text>
</g>
<!-- weather_station&#45;&gt;Ø20&#45;604&#45;0 -->
<g id="edge24" class="edge">
<title>weather_station&#45;&gt;Ø20&#45;604&#45;0</title>
<path fill="none" stroke="#999999" stroke-width="7" d="M479.27,-1781.98C504.67,-1745.67 541.77,-1693.89 559,-1676 597.06,-1636.49 643.53,-1597.86 685.07,-1566.07"/>
<polygon fill="#999999" stroke="#999999" stroke-width="7" points="688.78,-1570.94 693.04,-1560.01 681.37,-1561.19 688.78,-1570.94"/>
<text text-anchor="middle" x="663.5" y="-1682" font-family="Helvetica,sans-Serif" font-size="20.00">outdoorTemperature &#160;&#160;&#160;</text>
</g>
<!-- weather_station&#45;&gt;HR_Ventilation1 -->
<g id="edge25" class="edge">
<title>weather_station&#45;&gt;HR_Ventilation1</title>
<path fill="none" stroke="#999999" stroke-width="7" d="M312.46,-1781.98C179.45,-1736.45 0,-1645.94 0,-1489 0,-1489 0,-1489 0,-601 0,-519.65 484.5,-419.73 789.56,-364.89"/>
<polygon fill="#999999" stroke="#999999" stroke-width="7" points="790.67,-370.91 799.43,-363.12 788.51,-358.85 790.67,-370.91"/>
<text text-anchor="middle" x="112.5" y="-991" font-family="Helvetica,sans-Serif" font-size="20.00">primaryTemperatureIn &#160;&#160;&#160;</text>
</g>
<!-- occupancy_schedule -->
<g id="node9" class="node">
<title>occupancy_schedule</title>
<polygon fill="#d9d9d9" stroke="black" stroke-width="5" points="1164,-1850 876,-1850 876,-1792 1164,-1792 1164,-1850"/>
<text text-anchor="middle" x="1020" y="-1809.8" font-family="Times New Roman,serif" font-size="44.00" fill="white">Schedule</text>
</g>
<!-- occupancy_schedule&#45;&gt;Ø20&#45;604&#45;0 -->
<g id="edge26" class="edge">
<title>occupancy_schedule&#45;&gt;Ø20&#45;604&#45;0</title>
<path fill="none" stroke="#999999" stroke-width="7" d="M1021.08,-1791.75C1021.06,-1761.4 1017.53,-1712.59 998,-1676 975.71,-1634.23 940.35,-1596.91 905.29,-1566.8"/>
<polygon fill="#999999" stroke="#999999" stroke-width="7" points="908.93,-1561.86 897.34,-1560.09 901.03,-1571.22 908.93,-1561.86"/>
<text text-anchor="middle" x="1096" y="-1682" font-family="Helvetica,sans-Serif" font-size="20.00">numberOfPeople &#160;&#160;&#160;</text>
</g>
<!-- V_Ø20&#45;604&#45;0&#45;&gt;SH_Ø20&#45;604&#45;0 -->
<g id="edge27" class="edge">
<title>V_Ø20&#45;604&#45;0&#45;&gt;SH_Ø20&#45;604&#45;0</title>
<path fill="none" stroke="#999999" stroke-width="7" d="M456.18,-836.82C423.89,-788.48 361.79,-695.51 326.4,-642.52"/>
<polygon fill="#999999" stroke="#999999" stroke-width="7" points="331.39,-638.97 320.75,-634.06 321.21,-645.78 331.39,-638.97"/>
<text text-anchor="middle" x="480" y="-737" font-family="Helvetica,sans-Serif" font-size="20.00">waterFlowRate &#160;&#160;&#160;</text>
</g>
<!-- HR_Ventilation1&#45;&gt;HC_Ventilation1_Heating1 -->
<g id="edge28" class="edge">
<title>HR_Ventilation1&#45;&gt;HC_Ventilation1_Heating1</title>
<path fill="none" stroke="#999999" stroke-width="7" d="M1083.22,-280.83C1144.59,-231.51 1246.54,-149.56 1305.98,-101.79"/>
<polygon fill="#999999" stroke="#999999" stroke-width="7" points="1310.12,-106.32 1314.08,-95.28 1302.45,-96.77 1310.12,-106.32"/>
<text text-anchor="middle" x="1324" y="-178" font-family="Helvetica,sans-Serif" font-size="20.00">supplyAirTemperature &#160;&#160;&#160;</text>
</g>
<!-- temperature_setpoint_schedule -->
<g id="node16" class="node">
<title>temperature_setpoint_schedule</title>
<polygon fill="#d9d9d9" stroke="black" stroke-width="5" points="316,-1517 28,-1517 28,-1459 316,-1459 316,-1517"/>
<text text-anchor="middle" x="172" y="-1476.8" font-family="Times New Roman,serif" font-size="44.00" fill="white">Schedule</text>
</g>
<!-- temperature_setpoint_schedule&#45;&gt;C_T_Ø20&#45;604&#45;0 -->
<g id="edge29" class="edge">
<title>temperature_setpoint_schedule&#45;&gt;C_T_Ø20&#45;604&#45;0</title>
<path fill="none" stroke="#999999" stroke-width="7" d="M181.61,-1458.8C197.4,-1415.8 232.32,-1333.14 284,-1279 320.41,-1240.85 369.91,-1209.6 413.2,-1186.81"/>
<polygon fill="#999999" stroke="#999999" stroke-width="7" points="416.28,-1192.11 422.34,-1182.07 410.64,-1181.24 416.28,-1192.11"/>
<text text-anchor="middle" x="358" y="-1285" font-family="Helvetica,sans-Serif" font-size="20.00">setpointValue &#160;&#160;&#160;</text>
</g>
<!-- co2_setpoint_schedule -->
<g id="node17" class="node">
<title>co2_setpoint_schedule</title>
<polygon fill="#d9d9d9" stroke="black" stroke-width="5" points="1906,-1517 1618,-1517 1618,-1459 1906,-1459 1906,-1517"/>
<text text-anchor="middle" x="1762" y="-1476.8" font-family="Times New Roman,serif" font-size="44.00" fill="white">Schedule</text>
</g>
<!-- co2_setpoint_schedule&#45;&gt;C_C_Ø20&#45;604&#45;0 -->
<g id="edge30" class="edge">
<title>co2_setpoint_schedule&#45;&gt;C_C_Ø20&#45;604&#45;0</title>
<path fill="none" stroke="#999999" stroke-width="7" d="M1720.59,-1458.93C1635.22,-1401.06 1438.6,-1267.78 1330.53,-1194.52"/>
<polygon fill="#999999" stroke="#999999" stroke-width="7" points="1333.66,-1189.24 1321.95,-1188.7 1326.79,-1199.38 1333.66,-1189.24"/>
<text text-anchor="middle" x="1552" y="-1285" font-family="Helvetica,sans-Serif" font-size="20.00">setpointValue &#160;&#160;&#160;</text>
</g>
</g>
</svg>
